<?xml version="1.0" encoding="utf-8"?>
<!-- Generator: Adobe Illustrator 23.1.0, SVG Export Plug-In . SVG Version: 6.00 Build 0)  -->
<svg version="1.1" id="Layer_1" focusable="false" xmlns="http://www.w3.org/2000/svg" xmlns:xlink="http://www.w3.org/1999/xlink"
	 x="0px" y="0px" viewBox="0 0 512 512" style="enable-background:new 0 0 512 512;" xml:space="preserve">
<style type="text/css">
	.st0{fill:#FFC000;}
	.st1{opacity:0.4;enable-background:new    ;}
</style>
<circle class="st0" cx="256.5" cy="256.5" r="252"/>
<g>
	<path class="st1" d="M124,410c0,12.2,9.8,22,22,22h220c12.2,0,22-9.8,22-22v-66H124V410z M333,146c-6.1,0-11-4.9-11-11V80H146
		c-12.2,0-22,9.8-22,22v132h264v-88H333z"/>
	<path d="M333,146h55v-3.1c0-3.3-1.3-6.4-3.6-8.7l-50.5-50.5c-2.3-2.3-5.5-3.6-8.8-3.6H322v55C322,141.1,326.9,146,333,146z
		 M388,212v22H124v-22c-24.3,0-44,19.7-44,44v77c0,6.1,4.9,11,11,11h330c6.1,0,11-4.9,11-11v-77C432,231.7,412.3,212,388,212z
		 M377,305.5c-9.1,0-16.5-7.4-16.5-16.5c0-9.1,7.4-16.5,16.5-16.5s16.5,7.4,16.5,16.5C393.5,298.1,386.1,305.5,377,305.5z"/>
</g>
</svg>
