<?xml version="1.0" encoding="utf-8"?>
<!-- Generator: Adobe Illustrator 19.0.0, SVG Export Plug-In . SVG Version: 6.00 Build 0)  -->
<svg version="1.1" xmlns="http://www.w3.org/2000/svg" xmlns:xlink="http://www.w3.org/1999/xlink" x="0px" y="0px"
	 viewBox="0 0 421.49 421.492" enable-background="new 0 0 421.49 421.492" xml:space="preserve">
<g id="Background">
</g>
<g id="Guides">
</g>
<g id="Foreground">
	<g>
		<circle fill="#003399" cx="210.746" cy="208.91" r="47.244"/>
		<path fill="#003399" d="M210.746,208.91"/>
	</g>
	<g>
		<circle fill="#003399" cx="363.104" cy="208.91" r="47.244"/>
		<path fill="#003399" d="M363.105,208.91"/>
	</g>
	<path fill="#003399" d="M12.89,208.91c0-26.093,21.151-47.244,47.244-47.244c17.063,0,32.014,9.046,40.318,22.605h19.068
		c-9.666-23.273-32.614-39.639-59.386-39.639c-27.488,0-50.945,17.253-60.134,41.521V0h298.43v273.188h17.484v-20.634
		c11.742,12.689,28.539,20.634,47.191,20.634c25.888,0,48.201-15.304,58.384-37.359v185.662H162.574V251.469
		c11.777,13.32,28.994,21.719,48.172,21.719c35.5,0,64.278-28.778,64.278-64.278s-28.778-64.278-64.278-64.278
		c-19.178,0-36.395,8.398-48.172,21.719v-22.025h-16.106v64.584v212.581H0V231.667c9.189,24.268,32.646,41.521,60.134,41.521
		c25.341,0,47.256-14.664,57.724-35.97H97.96c-8.617,11.497-22.354,18.936-37.827,18.936C34.041,256.154,12.89,235.002,12.89,208.91
		z"/>
	<path fill="#003399" d="M315.914,0H421.49v181.99c-10.183-22.055-32.496-37.358-58.384-37.358
		c-18.652,0-35.449,7.944-47.191,20.633V0z"/>
</g>
</svg>
