<?xml version="1.0" encoding="utf-8"?>
<!-- Generator: Adobe Illustrator 21.1.0, SVG Export Plug-In . SVG Version: 6.00 Build 0)  -->
<svg version="1.1" id="Layer_1" xmlns="http://www.w3.org/2000/svg" xmlns:xlink="http://www.w3.org/1999/xlink" x="0px" y="0px"
	 viewBox="0 0 1090.636 171" enable-background="new 0 0 1090.636 171" xml:space="preserve">
<path fill="#003399" d="M508.636,159.39h-352.57c0-9.082,0-18.165,0-27.247c0-40.322,0-80.644,0-120.966
	c117.523,0,235.047,0,352.57,0V159.39z"/>
<g>
	<g>
		<circle fill="#003399" cx="83.067" cy="84.638" r="16.613"/>
		<path fill="#003399" d="M83.067,84.638"/>
	</g>
	<g>
		<circle fill="#003399" cx="136.643" cy="84.638" r="16.613"/>
		<path fill="#003399" d="M136.643,84.638"/>
	</g>
	<path fill="#003399" d="M13.493,84.638c0-9.175,7.438-16.613,16.613-16.613c6,0,11.258,3.181,14.177,7.949h6.705
		c-3.399-8.184-11.468-13.939-20.882-13.939c-9.666,0-17.914,6.067-21.145,14.601V11.177H113.9v96.064h6.148v-7.256
		c4.129,4.462,10.035,7.256,16.594,7.256c9.103,0,16.949-5.381,20.53-13.137v65.286H66.128V99.604
		c4.141,4.684,10.195,7.637,16.939,7.637c12.483,0,22.603-10.119,22.603-22.603S95.55,62.036,83.067,62.036
		c-6.744,0-12.798,2.953-16.939,7.637v-7.745h-5.663v22.71v74.752H8.96V92.64c3.231,8.534,11.479,14.601,21.145,14.601
		c8.911,0,16.617-5.157,20.298-12.648h-6.997c-3.03,4.043-7.86,6.658-13.301,6.658C20.931,101.251,13.493,93.813,13.493,84.638z"/>
	<path fill="#003399" d="M120.048,11.177h37.125v63.995c-3.581-7.755-11.427-13.136-20.53-13.136
		c-6.559,0-12.465,2.793-16.594,7.255V11.177z"/>
</g>
<g>
	<path fill="#FFFFFF" d="M197.498,106.284v-58.28h5.835v58.28H197.498z"/>
	<path fill="#FFFFFF" d="M246.631,106.284V83.65c0-11.75-5.363-16.167-13.328-16.167c-7.808,0-13.171,4.495-13.171,15.063v23.738
		h-5.835V63.146h5.835v5.599c3.628-4.417,8.202-6.624,13.88-6.624c10.804,0,18.454,6.387,18.454,21.529v22.634H246.631z"/>
	<path fill="#FFFFFF" d="M294.738,106.284V83.098c0-10.725-5.442-15.615-13.328-15.615c-7.492,0-13.171,4.574-13.171,15.142v23.659
		h-5.835v-58.28h5.835v20.741c2.918-4.259,7.808-6.624,13.723-6.624c11.199,0,18.611,6.545,18.611,20.977v23.186H294.738z"/>
	<path fill="#FFFFFF" d="M331.962,107.309c-13.406,0-23.106-9.621-23.106-22.87c0-12.618,9.858-22.318,22.633-22.318
		c12.934,0,22.398,9.542,22.398,22.712C353.887,97.767,344.58,107.309,331.962,107.309z M331.489,67.483
		c-9.543,0-16.719,7.335-16.719,17.114c0,10.095,7.098,17.35,17.035,17.35c9.385,0,16.167-7.176,16.167-17.034
		C347.972,74.896,340.953,67.483,331.489,67.483z"/>
	<path fill="#FFFFFF" d="M394.346,106.284v-6.703c-2.918,5.362-7.177,7.728-13.88,7.728c-10.962,0-18.296-5.836-18.296-20.899
		V63.146h5.835v23.265c0,10.961,4.574,15.536,12.934,15.536c7.887,0,13.407-4.889,13.407-16.64v-22.16h5.835v43.138H394.346z"/>
	<path fill="#FFFFFF" d="M420.451,107.309c-8.28,0-13.88-5.363-13.88-13.722h5.757c0,5.283,3.313,8.359,8.123,8.359
		c4.18,0,7.256-3.154,7.256-7.491c0-4.338-2.13-5.758-8.36-8.281c-6.072-2.445-6.23-2.524-7.965-4.18
		c-2.129-1.972-3.233-4.653-3.233-7.728c0-7.019,5.205-12.145,12.224-12.145c6.94,0,12.145,4.732,12.145,11.672h-5.914
		c0-4.102-2.524-6.31-6.31-6.31c-3.47,0-6.23,2.761-6.23,6.23c0,2.524,1.261,4.338,3.942,5.679c1.262,0.631,1.578,0.788,8.124,3.47
		c5.047,2.129,7.491,5.757,7.491,11.04C433.621,101.789,428.18,107.309,420.451,107.309z"/>
	<path fill="#FFFFFF" d="M444.899,86.647c0.473,8.517,7.965,15.299,16.798,15.299c6.546,0,12.618-3.942,15.063-9.858h6.072
		c-2.76,8.202-11.199,15.221-20.977,15.221c-12.777,0-22.792-10.016-22.792-22.792c0-12.539,9.858-22.397,22.397-22.397
		c12.776,0,22.476,9.227,22.476,24.526H444.899z M461.382,67.483c-8.202,0-14.747,5.599-16.325,13.88h33.044
		C476.129,72.767,469.741,67.483,461.382,67.483z"/>
</g>
<g>
	<path fill="#FFFFFF" d="M136.643,107.241c-7.074,0-13.214-3.001-16.828-8.345v7.388h-5.817V48.201h5.817V70.68
		c3.693-5.423,9.667-8.41,16.898-8.41c12.733,0,22.636,9.824,22.636,22.478C159.348,97.638,149.611,107.241,136.643,107.241z
		 M136.555,67.615c-9.589,0-17.134,7.467-17.134,16.977s7.624,17.37,17.055,17.37c9.668,0,16.977-7.467,16.977-17.37
		C153.454,74.924,146.222,67.615,136.555,67.615z"/>
</g>
<g>
	<path fill="#8E8E8E" d="M542.641,150.995h-8.893l-3.588,6.318h-5.343l15.21-26.131h3.042l6.045,26.131h-5.148L542.641,150.995z
		 M536.05,146.979h5.732l-1.561-7.333L536.05,146.979z"/>
	<path fill="#8E8E8E" d="M560.307,141.05c1.443-1.716,3.511-3.003,5.851-3.003c3.432,0,4.836,2.418,4.836,5.421
		c0,0.819-0.117,2.067-0.273,2.887l-1.014,6.162c-0.273,1.599-0.313,1.911-0.313,2.105c0,0.43,0.547,0.546,1.99,0.624v2.067
		c-0.858,0.273-2.73,0.546-4.408,0.546c-1.248,0-2.496-0.312-2.496-1.833c0-0.272,0.039-0.78,0.156-1.404l1.404-7.566
		c0.156-0.818,0.273-1.911,0.273-2.496c0-1.56-0.547-2.457-1.756-2.457c-1.91,0-4.056,2.341-5.109,4.057l-1.871,11.154h-4.642
		l2.379-13.807c0.234-1.443,0.272-1.989,0.272-2.145c0-0.508-0.467-0.624-1.949-0.702l0.429-2.028
		c0.741-0.273,2.418-0.585,3.939-0.585c1.442,0,2.457,0.39,2.457,1.716C560.464,140.075,560.385,140.543,560.307,141.05z"/>
	<path fill="#8E8E8E" d="M588.386,138.047c1.209,0,2.457,0.234,2.457,1.716c0,0.585-0.195,1.794-0.312,2.496l-1.755,10.258
		c-0.156,0.818-0.313,1.755-0.313,2.027c0,0.508,0.585,0.624,1.989,0.702v2.067c-0.351,0.117-2.808,0.546-4.446,0.546
		c-1.17,0-2.457-0.312-2.457-1.833c0-0.468,0.156-1.248,0.234-1.755l1.91-10.804c0.195-1.131,0.273-1.755,0.273-2.145
		c0-0.469-0.507-0.624-1.949-0.663l0.428-2.028C584.994,138.476,587.06,138.047,588.386,138.047z M586.437,132.313
		c0-1.755,1.326-3.12,3.08-3.12c1.795,0,2.887,1.287,2.887,2.848c0,1.755-1.326,3.119-3.081,3.119
		C587.529,135.16,586.437,133.874,586.437,132.313z"/>
	<path fill="#8E8E8E" d="M601.959,141.05c1.443-1.716,3.51-3.003,5.85-3.003c3.433,0,4.836,2.418,4.836,5.421
		c0,0.819-0.117,2.067-0.272,2.887l-1.015,6.162c-0.272,1.599-0.312,1.911-0.312,2.105c0,0.43,0.546,0.546,1.989,0.624v2.067
		c-0.858,0.273-2.73,0.546-4.407,0.546c-1.248,0-2.496-0.312-2.496-1.833c0-0.272,0.039-0.78,0.155-1.404l1.404-7.566
		c0.156-0.818,0.273-1.911,0.273-2.496c0-1.56-0.546-2.457-1.755-2.457c-1.911,0-4.056,2.341-5.109,4.057l-1.872,11.154h-4.641
		l2.379-13.807c0.233-1.443,0.272-1.989,0.272-2.145c0-0.508-0.468-0.624-1.95-0.702l0.43-2.028c0.74-0.273,2.418-0.585,3.939-0.585
		c1.442,0,2.457,0.39,2.457,1.716C602.115,140.075,602.037,140.543,601.959,141.05z"/>
	<path fill="#8E8E8E" d="M619.937,138.593l2.379-4.642h2.848l-0.82,4.642h4.33l-0.624,3.861h-4.407l-1.404,8.112
		c-0.117,0.702-0.352,2.028-0.352,2.457s0.273,0.702,0.82,0.702c0.779,0,2.34-0.702,3.041-1.093l0.937,3.822
		c-1.093,0.585-3.705,1.404-5.655,1.404s-3.822-1.014-3.822-3.003c0-0.663,0.195-1.95,0.352-2.964l1.638-9.438h-3.12l0.702-3.861
		H619.937z"/>
	<path fill="#8E8E8E" d="M634.172,149.591v0.469c0,1.638,0.273,3.588,2.457,3.588c2.106,0,4.875-1.365,6.046-2.146l1.092,4.057
		c-1.521,1.053-4.836,2.301-7.605,2.301c-4.329,0-6.669-2.301-6.669-7.215c0-6.162,3.744-12.598,10.569-12.598
		c2.729,0,5.343,1.131,5.343,4.407C645.404,146.471,641.037,149.396,634.172,149.591z M634.718,146.393
		c3.314-0.39,5.889-1.521,5.889-3.393c0-0.78-0.546-1.209-1.443-1.209C637.798,141.791,635.693,143.351,634.718,146.393z"/>
	<path fill="#8E8E8E" d="M654.257,146.081l-1.912,11.232h-4.641l2.379-13.807c0.234-1.443,0.273-1.989,0.273-2.145
		c0-0.508-0.469-0.624-1.95-0.702l0.429-2.028c0.741-0.273,2.418-0.585,3.939-0.585c1.443,0,2.457,0.39,2.457,1.716
		c0,0.429-0.156,1.326-0.234,1.95c1.521-1.833,3.627-3.666,5.344-3.666c0.623,0,1.131,0.312,1.365,0.663l-1.131,4.407
		c-0.234-0.078-0.781-0.195-1.248-0.195C658.002,142.922,656.636,143.507,654.257,146.081z"/>
	<path fill="#8E8E8E" d="M670.675,141.05c1.443-1.716,3.51-3.003,5.851-3.003c3.432,0,4.836,2.418,4.836,5.421
		c0,0.819-0.117,2.067-0.272,2.887l-1.015,6.162c-0.272,1.599-0.312,1.911-0.312,2.105c0,0.43,0.545,0.546,1.988,0.624v2.067
		c-0.857,0.273-2.729,0.546-4.406,0.546c-1.248,0-2.496-0.312-2.496-1.833c0-0.272,0.039-0.78,0.155-1.404l1.404-7.566
		c0.155-0.818,0.272-1.911,0.272-2.496c0-1.56-0.545-2.457-1.754-2.457c-1.912,0-4.057,2.341-5.109,4.057l-1.873,11.154h-4.641
		l2.379-13.807c0.234-1.443,0.273-1.989,0.273-2.145c0-0.508-0.469-0.624-1.95-0.702l0.429-2.028
		c0.741-0.273,2.418-0.585,3.939-0.585c1.443,0,2.457,0.39,2.457,1.716C670.832,140.075,670.754,140.543,670.675,141.05z"/>
	<path fill="#8E8E8E" d="M699.964,152.438c-0.272,1.56-0.312,1.833-0.312,2.145c0,0.469,0.468,0.585,1.989,0.663v2.067
		c-0.78,0.195-2.73,0.546-4.329,0.546c-1.443,0-2.496-0.351-2.496-1.716c0-0.195,0-0.507,0.116-1.287
		c-1.248,1.794-3.314,3.003-5.304,3.003c-3.081,0-5.147-2.184-5.147-7.098c0-6.279,3.197-12.715,10.568-12.715
		c2.418,0,5.266,0.702,7.06,1.95L699.964,152.438z M697.001,142.766c-0.546-0.351-1.442-0.624-2.496-0.624
		c-3.86,0-5.343,4.837-5.343,8.073c0,1.17,0.156,3.589,1.949,3.589c1.639,0,3.706-2.106,4.759-4.213L697.001,142.766z"/>
	<path fill="#8E8E8E" d="M710.299,152.438c-0.272,1.56-0.312,1.833-0.312,2.145c0,0.469,0.468,0.585,1.988,0.663v2.067
		c-0.779,0.234-2.651,0.546-4.328,0.546c-1.678,0-2.496-0.468-2.496-1.716c0-0.352,0.078-1.015,0.194-1.755l4.134-24.61l4.759-0.78
		L710.299,152.438z"/>
	<path fill="#8E8E8E" d="M731.125,146.081l-1.91,11.232h-4.642l2.379-13.807c0.234-1.443,0.272-1.989,0.272-2.145
		c0-0.508-0.467-0.624-1.949-0.702l0.429-2.028c0.741-0.273,2.418-0.585,3.939-0.585c1.442,0,2.457,0.39,2.457,1.716
		c0,0.429-0.156,1.326-0.234,1.95c1.521-1.833,3.628-3.666,5.343-3.666c0.625,0,1.132,0.312,1.365,0.663l-1.131,4.407
		c-0.234-0.078-0.779-0.195-1.248-0.195C734.869,142.922,733.504,143.507,731.125,146.081z"/>
	<path fill="#8E8E8E" d="M743.371,149.591v0.469c0,1.638,0.273,3.588,2.457,3.588c2.105,0,4.875-1.365,6.045-2.146l1.092,4.057
		c-1.521,1.053-4.836,2.301-7.604,2.301c-4.329,0-6.669-2.301-6.669-7.215c0-6.162,3.744-12.598,10.568-12.598
		c2.73,0,5.344,1.131,5.344,4.407C754.603,146.471,750.235,149.396,743.371,149.591z M743.917,146.393
		c3.315-0.39,5.89-1.521,5.89-3.393c0-0.78-0.547-1.209-1.443-1.209C746.998,141.791,744.892,143.351,743.917,146.393z"/>
	<path fill="#8E8E8E" d="M762.208,157.859c-2.808,0-5.772-1.092-6.981-1.95l1.717-3.666c1.17,0.78,3.627,1.833,5.576,1.833
		c1.482,0,2.224-0.702,2.224-1.599c0-2.613-7.06-3.433-7.06-8.464c0-3.861,3.081-5.967,6.825-5.967c2.38,0,4.798,0.896,5.772,1.56
		l-1.678,3.667c-1.014-0.625-2.847-1.326-4.289-1.326c-1.17,0-1.989,0.624-1.989,1.599c0,2.77,7.021,3.394,7.021,8.541
		C769.345,155.676,766.459,157.859,762.208,157.859z"/>
	<path fill="#8E8E8E" d="M772.464,150.176c0-6.24,3.275-12.129,9.906-12.129c4.368,0,6.786,2.964,6.786,7.684
		c0,6.24-3.276,12.129-9.906,12.129C774.882,157.859,772.464,154.896,772.464,150.176z M781.786,141.947
		c-2.574,0-4.642,3.471-4.642,8.189c0,2.224,0.78,3.822,2.691,3.822c2.574,0,4.642-3.471,4.642-8.189
		C784.477,143.546,783.697,141.947,781.786,141.947z"/>
	<path fill="#8E8E8E" d="M797.307,157.859c-3.433,0-4.797-2.535-4.797-5.538c0-0.819,0.155-2.301,0.312-3.276l0.976-5.655
		c0.272-1.599,0.272-1.95,0.272-2.027c0-0.508-0.507-0.624-1.95-0.702l0.43-2.028c0.468-0.156,2.418-0.585,4.056-0.585
		c1.716,0,2.418,0.468,2.418,1.716c0,0.468-0.194,1.521-0.312,2.146l-1.209,6.786c-0.156,0.936-0.352,2.184-0.352,2.886
		c0,1.209,0.43,2.185,1.755,2.185c2.106,0,4.407-2.809,5.148-4.251l1.833-10.921h4.642l-2.379,13.846
		c-0.234,1.287-0.313,1.833-0.313,2.145c0,0.469,0.468,0.585,1.989,0.663v2.067c-0.78,0.195-2.73,0.546-4.329,0.546
		c-1.443,0-2.496-0.351-2.496-1.716c0-0.195,0-0.585,0.117-1.365C801.363,156.846,799.257,157.859,797.307,157.859z"/>
	<path fill="#8E8E8E" d="M820.356,146.081l-1.911,11.232h-4.642l2.38-13.807c0.233-1.443,0.272-1.989,0.272-2.145
		c0-0.508-0.468-0.624-1.95-0.702l0.43-2.028c0.74-0.273,2.418-0.585,3.938-0.585c1.443,0,2.457,0.39,2.457,1.716
		c0,0.429-0.155,1.326-0.233,1.95c1.521-1.833,3.627-3.666,5.343-3.666c0.624,0,1.131,0.312,1.365,0.663l-1.131,4.407
		c-0.234-0.078-0.78-0.195-1.248-0.195C824.1,142.922,822.735,143.507,820.356,146.081z"/>
	<path fill="#8E8E8E" d="M827.922,150.8c0-6.98,3.705-12.753,10.608-12.753c1.833,0,3.783,0.702,4.719,1.365l-1.599,4.017
		c-0.819-0.663-2.379-1.287-3.744-1.287c-3.354,0-5.305,4.174-5.305,7.957c0,2.418,1.015,3.549,2.613,3.549
		c1.443,0,3.276-0.819,4.953-1.794l1.093,4.017c-1.21,0.819-4.368,1.989-6.67,1.989C830.846,157.859,827.922,155.948,827.922,150.8z
		"/>
	<path fill="#8E8E8E" d="M848.942,149.591v0.469c0,1.638,0.273,3.588,2.458,3.588c2.105,0,4.875-1.365,6.045-2.146l1.092,4.057
		c-1.521,1.053-4.836,2.301-7.605,2.301c-4.329,0-6.669-2.301-6.669-7.215c0-6.162,3.744-12.598,10.569-12.598
		c2.73,0,5.343,1.131,5.343,4.407C860.174,146.471,855.806,149.396,848.942,149.591z M849.489,146.393
		c3.314-0.39,5.889-1.521,5.889-3.393c0-0.78-0.546-1.209-1.443-1.209C852.57,141.791,850.464,143.351,849.489,146.393z"/>
	<path fill="#8E8E8E" d="M879.401,138.593h4.251l-0.663,3.861h-4.251l-2.925,17.082c-0.858,5.109-2.848,6.942-6.396,6.942
		c-1.521,0-3.12-0.39-4.407-0.896l1.326-4.018c0.624,0.352,1.794,0.702,2.574,0.702c1.482,0,1.989-1.014,2.457-3.705l2.73-16.107
		h-3.12l0.74-3.861h3.042l0.273-1.56c1.131-6.553,4.642-8.035,7.605-8.035c1.365,0,2.808,0.391,3.588,0.78l-1.911,3.822
		c-0.39-0.234-1.053-0.468-1.755-0.468c-1.95,0-2.691,2.105-2.964,4.251L879.401,138.593z"/>
	<path fill="#8E8E8E" d="M884.003,150.176c0-6.24,3.276-12.129,9.906-12.129c4.368,0,6.786,2.964,6.786,7.684
		c0,6.24-3.276,12.129-9.906,12.129C886.421,157.859,884.003,154.896,884.003,150.176z M893.324,141.947
		c-2.574,0-4.642,3.471-4.642,8.189c0,2.224,0.78,3.822,2.691,3.822c2.574,0,4.642-3.471,4.642-8.189
		C896.015,143.546,895.235,141.947,893.324,141.947z"/>
	<path fill="#8E8E8E" d="M909.743,146.081l-1.911,11.232h-4.642l2.38-13.807c0.233-1.443,0.272-1.989,0.272-2.145
		c0-0.508-0.468-0.624-1.95-0.702l0.43-2.028c0.74-0.273,2.418-0.585,3.938-0.585c1.443,0,2.457,0.39,2.457,1.716
		c0,0.429-0.155,1.326-0.233,1.95c1.521-1.833,3.627-3.666,5.343-3.666c0.624,0,1.131,0.312,1.365,0.663l-1.131,4.407
		c-0.234-0.078-0.78-0.195-1.248-0.195C913.487,142.922,912.122,143.507,909.743,146.081z"/>
	<path fill="#8E8E8E" d="M927.838,146.432c0-8.619,5.382-15.795,15.21-15.795c2.496,0,5.266,0.546,7.566,1.638l-1.521,4.329
		c-1.521-0.818-3.705-1.56-5.851-1.56c-6.552,0-10.18,5.07-10.18,11.154c0,4.836,2.613,7.332,7.372,7.332
		c2.34,0,5.304-0.819,6.902-1.599l0.586,4.173c-1.795,0.897-5.5,1.755-8.698,1.755C931.737,157.859,927.838,153.647,927.838,146.432
		z"/>
	<path fill="#8E8E8E" d="M958.53,146.861l-1.794,10.452h-5.031l4.563-26.131h7.839c5.383,0,8.308,1.989,8.308,6.513
		c0,6.124-4.29,9.166-10.843,9.166H958.53z M959.271,142.571h2.262c3.666,0,5.733-1.287,5.733-4.174c0-1.833-1.092-2.69-3.354-2.69
		h-3.433L959.271,142.571z"/>
	<path fill="#8E8E8E" d="M977.874,131.183h8.269c5.147,0,7.565,1.95,7.565,5.812c0,3.158-1.949,5.343-5.147,6.162
		c3.003,0.546,4.602,2.496,4.602,5.616c0,5.733-4.484,8.541-10.413,8.541h-9.438L977.874,131.183z M979.083,152.789h3.51
		c3.12,0,5.227-1.092,5.227-3.9c0-2.105-1.6-3.236-4.836-3.236h-2.652L979.083,152.789z M981.072,141.479h2.223
		c2.77,0,5.031-0.975,5.031-3.471c0-1.677-1.053-2.301-3.12-2.301h-3.159L981.072,141.479z"/>
	<path fill="#8E8E8E" d="M1010.476,157.859c-2.809,0-5.772-1.092-6.981-1.95l1.716-3.666c1.17,0.78,3.628,1.833,5.577,1.833
		c1.482,0,2.224-0.702,2.224-1.599c0-2.613-7.06-3.433-7.06-8.464c0-3.861,3.081-5.967,6.825-5.967c2.379,0,4.798,0.896,5.772,1.56
		l-1.677,3.667c-1.015-0.625-2.848-1.326-4.29-1.326c-1.171,0-1.989,0.624-1.989,1.599c0,2.77,7.02,3.394,7.02,8.541
		C1017.613,155.676,1014.727,157.859,1010.476,157.859z"/>
	<path fill="#8E8E8E" d="M1024.594,138.593l2.379-4.642h2.847l-0.818,4.642h4.329l-0.624,3.861h-4.407l-1.404,8.112
		c-0.117,0.702-0.351,2.028-0.351,2.457s0.272,0.702,0.818,0.702c0.78,0,2.341-0.702,3.042-1.093l0.937,3.822
		c-1.092,0.585-3.705,1.404-5.655,1.404s-3.822-1.014-3.822-3.003c0-0.663,0.195-1.95,0.352-2.964l1.638-9.438h-3.12l0.702-3.861
		H1024.594z"/>
	<path fill="#8E8E8E" d="M1049.712,152.438c-0.273,1.56-0.312,1.833-0.312,2.145c0,0.469,0.468,0.585,1.988,0.663v2.067
		c-0.779,0.195-2.729,0.546-4.329,0.546c-1.442,0-2.496-0.351-2.496-1.716c0-0.195,0-0.507,0.117-1.287
		c-1.248,1.794-3.315,3.003-5.304,3.003c-3.082,0-5.148-2.184-5.148-7.098c0-6.279,3.198-12.715,10.569-12.715
		c2.418,0,5.265,0.702,7.06,1.95L1049.712,152.438z M1046.748,142.766c-0.546-0.351-1.443-0.624-2.496-0.624
		c-3.861,0-5.344,4.837-5.344,8.073c0,1.17,0.156,3.589,1.95,3.589c1.639,0,3.705-2.106,4.759-4.213L1046.748,142.766z"/>
	<path fill="#8E8E8E" d="M1063.556,138.593h4.251l-0.663,3.861h-4.251l-2.925,17.082c-0.858,5.109-2.848,6.942-6.396,6.942
		c-1.521,0-3.12-0.39-4.407-0.896l1.326-4.018c0.624,0.352,1.794,0.702,2.574,0.702c1.481,0,1.989-1.014,2.457-3.705l2.73-16.107
		h-3.12l0.74-3.861h3.043l0.272-1.56c1.131-6.553,4.642-8.035,7.605-8.035c1.365,0,2.808,0.391,3.588,0.78l-1.911,3.822
		c-0.39-0.234-1.053-0.468-1.755-0.468c-1.95,0-2.691,2.105-2.964,4.251L1063.556,138.593z"/>
	<path fill="#8E8E8E" d="M1077.595,138.593h4.251l-0.663,3.861h-4.251l-2.925,17.082c-0.858,5.109-2.848,6.942-6.396,6.942
		c-1.521,0-3.12-0.39-4.407-0.896l1.326-4.018c0.624,0.352,1.794,0.702,2.574,0.702c1.481,0,1.989-1.014,2.457-3.705l2.73-16.107
		h-3.12l0.74-3.861h3.043l0.272-1.56c1.131-6.553,4.642-8.035,7.605-8.035c1.365,0,2.808,0.391,3.588,0.78l-1.911,3.822
		c-0.39-0.234-1.053-0.468-1.755-0.468c-1.95,0-2.691,2.105-2.964,4.251L1077.595,138.593z"/>
</g>
</svg>
